<?xml version="1.0" encoding="utf-8"?>
<!-- Generator: Adobe Illustrator 24.1.0, SVG Export Plug-In . SVG Version: 6.00 Build 0)  -->
<svg version="1.1" xmlns="http://www.w3.org/2000/svg" xmlns:xlink="http://www.w3.org/1999/xlink" x="0px" y="0px"
	 viewBox="0 0 151.7 151.7" style="enable-background:new 0 0 151.7 151.7;" xml:space="preserve">
<style type="text/css">
	.st0{fill:none;stroke:#000000;stroke-width:5;stroke-miterlimit:10;}
	.st1{stroke:#000000;stroke-width:0.25;stroke-miterlimit:10;}
</style>
<g id="circle">
	<path class="st0" d="M68.5,34.5c-6.9,2.3-12.8,7.1-18.2,12c-4.5,4.1-8.8,8.4-11.9,13.5c-3.2,5.1-5.2,11.1-4.8,17.1
		c0.4,5.3,2.7,10.3,3.9,15.5c0.7,2.9,1,6,2.4,8.7c1.4,2.7,3.7,4.8,6,6.7c6.5,5.3,13.9,9.6,22,11.6c2.9,0.7,6,1,8.9,0.3
		c1.7-0.4,3.3-1.3,4.8-2.1c9.3-5,18.2-11,26.3-17.8c2.1-1.8,4.2-3.6,5.7-6c2.4-3.8,2.8-8.5,3.2-13c0.6-7.7,1.2-15.4,1.9-23.1
		c0.1-1.8,0.3-3.6-0.4-5.3c-0.7-1.7-2-2.9-3.4-4.1c-4.5-4-9.1-7.9-13.9-11.6C92.8,30.5,78.1,31.3,68.5,34.5z"/>
</g>
<g id="letters">
	<path class="st1" d="M53.8,87.7h-0.1c-1,0-1.7-0.9-1.4-1.9l9.8-33.9c0.4-1.4,2.5-1.4,2.8,0.1l3.5,14.1c0.2,0.9-0.5,1.8-1.4,1.8
		h-0.2c-0.7,0-1.2-0.5-1.4-1.1l-0.8-3.1c-0.4-1.4-2.4-1.5-2.8,0l-1.3,4.5c-0.3,0.9,0.4,1.9,1.4,1.9h15.7c0.8,0,1.5,0.7,1.5,1.5v17.2
		c0,0.8,0.7,1.5,1.5,1.5h1c0.8,0,1.5-0.7,1.5-1.5V53c0-0.8-0.7-1.5-1.5-1.5h-4c-0.8,0-1.5-0.7-1.5-1.5v-0.6c0-0.8,0.7-1.5,1.5-1.5
		h19.7c0.8,0,1.5,0.7,1.5,1.5v0.6c0,0.8-0.7,1.5-1.5,1.5h-9.5c-0.8,0-1.5,0.7-1.5,1.5v2.2c0,0.8,0.7,1.5,1.5,1.5h2.5
		c0.8,0,1.5,0.7,1.5,1.5v0.1c0,0.8-0.7,1.5-1.5,1.5h-2.5c-0.8,0-1.5,0.7-1.5,1.5v27.7c0,0.8,0.7,1.5,1.5,1.5h9.5
		c0.8,0,1.5,0.7,1.5,1.5l0,0c0,0.8-0.7,1.5-1.5,1.5H80.5c-0.8,0-1.4,0.6-1.5,1.3c-0.3,3.4-1.7,12.1-10,12.2c-7.7,0-10.2-6.7-10.9-10
		c-0.2-0.9,0.5-1.8,1.4-1.8H60c0.7,0,1.3,0.5,1.4,1.2c0.4,2,1.6,6,4.9,7.5c4.5,2,7.1-2,7.1-2s2.7-3.5,2.7-8.8V74.5
		c0-0.8-0.7-1.5-1.5-1.5h-2.7c-0.9,0-1.6,0.9-1.4,1.8l2.7,11c0.2,0.9-0.5,1.8-1.4,1.8h-0.2c-0.7,0-1.3-0.5-1.4-1.1L67,74.1
		c-0.2-0.7-0.7-1.1-1.4-1.1h-5.4c-0.7,0-1.2,0.4-1.4,1.1l-3.6,12.6C55,87.3,54.4,87.7,53.8,87.7z"/>
</g>
</svg>
