<?xml version="1.0" encoding="utf-8"?>
<!-- Generator: Adobe Illustrator 24.1.0, SVG Export Plug-In . SVG Version: 6.00 Build 0)  -->
<svg version="1.1" id="Layer_1" xmlns="http://www.w3.org/2000/svg" xmlns:xlink="http://www.w3.org/1999/xlink" x="0px" y="0px"
	 viewBox="0 0 1308 1848.2" style="enable-background:new 0 0 1308 1848.2;" xml:space="preserve">
<style type="text/css">
	.st0{opacity:8.000000e-02;}
	.st1{fill:none;stroke:#000000;stroke-width:0.75;stroke-miterlimit:10;}
	.st2{fill:none;stroke:#231F20;stroke-width:0.75;stroke-miterlimit:10;}
</style>
<g class="st0">
	<path class="st1" d="M657.2-510.4c-33.3,11.1-66.7,22.2-99.3,36.6c-187.6,83-311.1,271.9-364.7,470.6
		c-40.5-15-86.3,16.3-101.3,56.9s-7.8,85.6,3.3,126.8c19.6,75.2,49.7,147,63.4,223.5c24.2,132,2,277.1,67.3,394.1
		c30.1,54.2,77.1,96.7,122.9,138.6c34.6,32,69.9,63.4,104.6,95.4c26.1,23.5,52.3,47.7,82.3,66.7c27.4,17.6,57.5,31.4,88.2,43.1
		c265.3,98.7,562,32,831.3-53.6c45.7-14.4,92.8-30.7,128.7-62.1c47.1-41.2,69.9-103.3,109.1-151.6c29.4-35.9,68-64,89.5-104.6
		c38.6-70.6,17.6-158.2,22.2-238.5c3.3-61.4,22.2-120.3,32-181c25.5-154.9-9.8-319.6-96.7-450.3c-9.1-13.7-19-27.4-23.5-43.1
		c-9.1-31.4,2.6-65.4-4.6-97.4c-7.8-34-35.9-58.8-62.7-81c-52.3-43.8-104.6-86.9-156.9-130.7c-21.6-17.6-43.8-35.9-69.9-44.4
		c-37.3-11.8-77.8-3.3-117-2.6c-116.3,0.7-216.3-69.9-327.4-93.5c-52.3-11.1-81.7,2-128.7,19.6C786.6-549.6,721.2-530.6,657.2-510.4
		z"/>
	<path class="st2" d="M742.1,503.3c36.6,71.9,154.2,87.6,235.3,82.3c58.8-3.9,113.7-34,162.7-68.6c50.3-36.6,96.7-82.3,122.2-140.5
		s24.2-128.7-13.7-179.1c-17-22.2-39.2-39.2-61.4-56.2c-37.9-27.4-75.2-56.2-113.1-83.7c-31.4-23.5-64-47.7-102.6-56.2
		c-64-15-132.7,17-173.8,68.6c-42.5,50.3-60.1,117-65.4,183.6c-5.2,56.9-35.9,82.3-24.2,137.9C712.7,413.1,736.9,482.4,742.1,503.3"
		/>
	<path class="st2" d="M797,505.9c17,10.5,36.6,15,56.9,17.6c25.5,3.9,50.3,8.5,77.1,6.5c51.6-3.9,96.7-32.7,140.5-58.8
		c29.4-19,58.8-36.6,83.7-62.1c24.2-25.5,41.2-58.2,41.2-92.8c0-39.2-22.2-75.2-43.1-107.8c-13.7-20.9-27.4-42.5-46.4-58.8
		c-23.5-20.3-51.6-32.7-80.4-43.1c-44.4-17-92.8-31.4-137.9-17.6c-54.2,15.7-86.9,70.6-106.5,123.5C755.9,281.7,718,454.3,797,505.9
		z"/>
	<path class="st2" d="M902.9,470c34.6,2,69.9-8.5,101.3-24.2c20.9-10.5,42.5-23.5,58.8-39.2c51.6-50.3,61.4-140.5,19-200.6
		s-128.7-83.7-194.1-51.6c-13.7,6.5-27.4,15.7-37.9,26.1c-13.7,15-22.2,32.7-28.8,51.6c-17.6,48.4-34,117-29.4,169.9
		C795.7,454.9,857.2,466.7,902.9,470z"/>
	<path class="st2" d="M1008.1,370.6c23.5-34.6,28.8-79.1,17.6-118.9c-3.3-13.7-9.8-27.4-20.9-36.6c-8.5-6.5-17.6-9.8-28.8-11.8
		c-24.2-5.2-49.7-7.2-71.9,2c-51.6,23.5-81,127.4-66.7,179.1C861.7,464.7,977.4,418.3,1008.1,370.6z"/>
	<path class="st2" d="M741.5,580.4c36.6,32.7,84.3,50.3,134,56.9c94.8,12.4,194.1-12.4,269.9-71.9c13.7-10.5,26.1-22.2,39.2-32.7
		c7.2-6.5,15.7-13.7,23.5-20.3c34-29.4,67.3-60.1,89.5-99.3c17.6-31.4,26.1-68.6,25.5-104.6c-1.3-36.6-12.4-72.5-25.5-107.8
		c-6.5-17-12.4-34.6-23.5-49.7c-25.5-36.6-66.7-60.1-106.5-82.3c-29.4-15.7-58.8-31.4-88.9-47.7c-23.5-12.4-47.7-25.5-73.9-30.7
		C948.7-20.2,893.1,7.9,844.7,38.6c-34,20.9-68.6,45.1-90.8,79.1c-11.8,17.6-20.3,37.9-26.1,58.8c-17,49.7-26.1,102.6-28.8,154.9
		C697,420.9,664.4,511.8,741.5,580.4z"/>
	<path class="st2" d="M719.9,652.3c36.6,31.4,84.3,49.7,132,58.2c13.7,2,27.4,3.9,42.5,5.2c45.1,3.3,90.8-1.3,135.3-12.4
		c105.2-27.4,197.4-94.1,264.7-179.1c75.8-96.1,122.2-219.6,111.8-341.8c-6.5-70.6-34.6-144.4-96.7-179.1
		c-35.9-20.3-77.1-23.5-116.3-36.6c-58.8-20.3-110.4-61.4-171.9-70.6c-27.4-3.9-56.2-1.3-83.7,3.3c-28.8,5.2-56.9,12.4-81,29.4
		c-19,12.4-34,30.7-48.4,47.7C757.8,32.7,707.5,92.2,657.8,150.4c-13.7,15.7-27.4,32.7-34.6,52.9c-5.2,15-6.5,29.4-7.2,45.1
		C608.2,384.3,604.9,556.2,719.9,652.3z"/>
	<path class="st2" d="M814,779.1c31.4,8.5,64,15,96.7,13.7c64-1.3,125.5-27.4,184.3-53.6c34.6-15.7,71.9-32.7,96.7-61.4
		c12.4-13.7,22.2-30.7,36.6-42.5c10.5-8.5,24.2-13.7,35.9-20.9c56.9-35.9,75.2-107.8,91.5-173.2c20.9-80.4,47.7-160.1,80.4-237.2
		c15.7-37.9,32.7-77.1,30.7-118.3c-3.3-50.3-36.6-94.8-77.1-124.2c-39.9-29.4-88.9-47.7-135.3-67.3c-49.7-20.9-100-45.1-154.2-49.7
		c-29.4-2-58.2,2-87.6,6.5c-39.9,6.5-81,11.8-117,29.4c-26.1,12.4-49.7,31.4-75.2,45.1c-32.7,19-71.2,30.7-109.1,41.8
		c-6.5,2-13.7,3.9-17.6,9.8c-8.5,9.8-6.5,23.5-5.2,35.9c3.3,56.9-30.7,107.8-65.4,152.9c-19,24.2-39.2,48.4-47.7,77.8
		c-10.5,34-3.9,70.6,2,105.9c9.8,53.6,22.2,107.8,27.4,162.7c3.3,34.6,2,68.6,12.4,103.3C642.8,708.5,721.2,762.1,814,779.1z"/>
	<path class="st2" d="M580.1,748.4c5.2,20.3,11.8,39.2,23.5,56.2c13.7,20.3,34.6,34.6,56.9,46.4c102.6,56.2,230,63.4,338.5,17.6
		c47.7-20.3,89.5-48.4,132.7-77.1c39.2-26.1,77.8-52.9,117-79.1c20.3-12.4,39.9-26.1,54.9-44.4c12.4-15,22.2-32.7,29.4-50.3
		c26.1-56.9,45.1-117,65.4-177.1s39.2-121.6,58.8-181.7c17.6-56.2,36.6-113.1,45.1-171.9c3.9-27.4,6.5-56.2,1.3-83.7
		c-3.9-20.3-11.8-39.2-20.3-58.2c-15-34.6-28.8-68.6-43.1-103.3c-2-5.2-5.2-11.8-9.8-15.7c-5.2-3.9-11.8-6.5-17.6-8.5
		c-32.7-11.8-61.4-34.6-92.8-50.3c-39.9-19-84.3-25.5-128.7-27.4c-181.7-9.8-369.3,44.4-501.9,168c-29,26.2-57.1,62.1-51.8,101.3
		c2,12.4,7.2,25.5,9.8,37.9c5.2,32.7-10.5,65.4-29.4,94.1c-19,28.8-42.5,52.9-54.9,83.7c-15,36.6-13.7,77.8-12.4,118.3
		c2,65.4,3.9,130.1,0,195.4c-3.3,35.9,2,72.5,7.2,107.8C563.1,678.4,580.1,715.7,580.1,748.4z"/>
	<path class="st2" d="M585.3,688.9C629.7,745.1,682,797.4,748,826.1c94.8,39.9,203.9,24.2,305.9,6.5c10.5-2,20.9-3.3,31.4-5.2
		c12.4-2,25.5-3.9,37.9-6.5c41.2-7.2,82.3-13.7,121.6-27.4c46.4-17,90.8-42.5,126.8-75.8c15-13.7,28.8-28.8,34.6-46.4
		c6.5-15.7,6.5-34,10.5-50.3c8.5-34.6,30.7-65.4,48.4-96.7c29.4-53.6,44.4-113.7,58.8-173.2c6.5-25.5,12.4-50.3,12.4-77.1
		c0-27.4-7.2-54.9-13.7-81c-22.2-83.7-47.7-164.7-75.8-245.7c-5.2-17-11.8-34-22.2-47.7c-15-19-35.9-32.7-56.2-44.4
		c-66.7-39.9-132.7-80.4-205.9-107.8c-72.5-27.4-151-42.5-228.1-30.7c-105.2,17-196.1,83.7-296.7,121.6c-6.5,2-12.4,3.9-17,8.5
		c-5.2,5.2-8.5,12.4-10.5,19C586-68.8,567.7-2.2,557.3,66.4c-5.9,41.8-9.8,86.3-26.1,126.1c-15.7,39.9-43.1,77.1-42.5,120.3
		c1.3,29.4,15.7,56.9,24.2,84.3c15.7,49.7-15.7,87.6-6.5,137.9C516.7,593.5,550,645.1,585.3,688.9z"/>
	<path class="st2" d="M695.7,892.8c48.4,23.5,102.6,36.6,154.2,28.8c36.6-6.5,71.9-22.2,108.5-23.5c44.4-1.3,85.6,20.3,130.1,23.5
		c30.7,2,61.4-3.9,89.5-12.4c56.2-17,107.8-45.1,152.9-82.3c132.7-108.5,195.4-280.4,244.4-444.4c29.4-96.1,56.2-196.1,41.2-296.7
		c-9.8-61.4-34.6-118.9-58.8-175.1c-7.2-17.6-15.7-35.9-27.4-51.6c-20.3-26.1-48.4-44.4-75.8-61.4c-64-39.2-128.7-79.1-198-106.5
		C1093.8-374.2,901-367.6,748-282.7c-32.7,19-66.7,41.2-104.6,43.1c-9.8,0-20.9,0-27.4,7.2c-3.9,3.9-5.2,10.5-6.5,15.7
		C583.4-118.7,479.4-53.3,463.8,48c-3.9,29.4-1.3,58.8,0,88.9c1.3,61.4-12.4,122.2-37.9,177.1c-6.5,13.7-13.7,27.4-9.8,42.5
		c3.3,10.5,11.8,17.6,17.6,27.4c32.7,44.4,10.5,110.4,15.7,161.4c5.2,45.1,15,88.9,34,130.1C525.2,768.6,601,848.4,695.7,892.8z"/>
	<path class="st2" d="M593.8,903.3c62.1,46.4,135.9,80.4,213.7,80.4c45.1,0,89.5-11.8,135.9-12.4c75.2-1.3,149.7,27.4,223.5,12.4
		c44.4-9.8,83.7-34,121.6-58.8c19-11.8,37.9-24.2,54.9-39.2c17.6-15.7,32.7-34,46.4-52.9c28.8-39.2,52.9-82.3,69.9-128.7
		c31.4-81,42.5-169.9,47.7-256.2c1.3-28.8,2-56.2-3.3-84.3c-8.5-42.5-29.4-80.4-41.2-122.2c-30.7-110.4,11.8-235.3-34-340.5
		c-19-43.1-50.3-80.4-71.9-122.2c-15.7-31.4-25.5-67.3-47.7-94.8c-30.7-37.9-81-52.9-128.7-65.4c-89.5-24.2-183.6-46.4-274.5-30.7
		c-58.2,10.5-113.1,35.9-169.9,52.9c-33.3,9.8-66.7,17-99.3,29.4C529.1-287.5,451.3-189.5,408.8-81.6s-56.2,223.5-67.3,338.5
		c-3.9,37.9-7.2,77.8,3.3,115c6.5,23.5,19,44.4,26.1,66.7c28.8,81,3.3,170.6,31.4,252.3C431,771.2,527.8,853.6,593.8,903.3z"/>
	<path class="st2" d="M862.4,396.1c1.3,3.3,2,7.2,5.2,9.8c2,2,5.2,2,7.2,3.3c12.4,3.3,24.2,5.2,36.6,8.5c8.5,2,17,3.9,26.1,3.9
		c30.7,1.3,61.4-15.7,79.1-41.2c19-25.5,26.1-56.2,27.4-87.6c1.3-22.2-3.3-46.4-17.6-62.1c-10.5-11.8-25.5-17.6-39.9-22.2
		c-10.5-3.3-20.9-6.5-31.4-6.5c-24.2,0-47.7,13.7-64,32.7C850.6,281.1,846.7,336,862.4,396.1z"/>
	<path class="st2" d="M872.8,503.3c22.2,5.2,45.1,5.2,67.3,5.2c24.2,0,48.4,0,70.6-9.8c34.6-13.7,58.2-47.7,79.1-79.1
		c24.2-35.9,48.4-73.9,56.2-116.3c10.5-58.8-15-122.2-58.2-163.4S984.6,76.5,924.5,70c-24.8-1.3-50.3-1.3-74.5,6.5
		c-56.9,17.6-94.1,75.8-104.6,135.3c-11.8,58.8-1.3,118.9,8.5,178.4C764.4,447.7,816,490.9,872.8,503.3z"/>
	<path class="st2" d="M1163,619.6c113.1-77.1,179.1-213.1,185.6-349c2-46.4-2-94.1-23.5-135.9c-27.4-54.9-81-92.8-137.2-116.3
		c-56.9-23.5-117-34.6-176.5-50.3c-25.5-6.5-50.3-15-77.1-13.7c-27.4,0-52.9,8.5-77.8,20.3C768.9,15.1,701,96.1,666.3,188.3
		c-43.1,115-39.9,266,24.2,373.2c54.9,90.8,182.3,130.1,283,123.5C1040.8,679.7,1107.5,657.5,1163,619.6z"/>
	<path class="st2" d="M443.5,807.2c88.9,105.2,216.3,175.1,351.6,202.6c226.8,44.4,473.8-35.9,630.7-204.6
		c11.8-12.4,22.2-25.5,27.4-41.2c5.2-15.7,3.3-34,6.5-50.3c9.8-46.4,54.9-73.9,83.7-110.4c44.4-56.2,50.3-132,54.9-203.9
		c3.9-69.9,9.8-139.2,13.7-207.8c1.3-20.9,3.3-43.1-2-63.4c-5.2-22.2-19-42.5-28.8-62.1c-29.4-58.2-36.6-125.5-61.4-185.6
		c-34-83.7-99.3-151.6-170.6-206.5c-25.5-19-51.6-36.6-79.1-53.6c-65.4-39.2-139.2-67.3-215-72.5c-85.6-5.2-168.6,20.3-249,49.7
		c-46.4,17.6-92.8,36.6-137.9,58.8c-43.1,20.3-87.6,43.1-118.9,79.1C501-213,484-139.8,467.6-71.2C444.1,32.1,422.5,135.3,397.1,238
		c-24.2,100-84.3,184.3-73.9,288.2C333.7,626.8,377.5,727.5,443.5,807.2z"/>
	<path class="st2" d="M325.8,304c-17-113.1-32.7-228.7,0-337.9c15-48.4,39.2-94.1,63.4-139.2c23.5-43.1,48.4-87.6,89.5-113.7
		c26.1-17,56.2-24.2,84.3-36.6c39.9-17,75.2-42.5,113.1-63.4c108.5-60.1,234-84.3,358.1-80.4s245.7,35.9,360.8,80.4
		c12.4,3.9,24.2,9.8,34.6,17c13.7,9.8,24.2,23.5,34,36.6c84.3,116.3,149.7,247,192.8,384.3c44.4,141.2,64,288.9,70.6,436.6
		c2,54.9,2,110.4-15,163.4c-13.7,44.4-37.9,83.7-63.4,121.6c-34,52.9-68.6,104.6-104.6,154.9c-19,27.4-39.9,56.2-68.6,73.9
		c-22.2,13.7-47.7,20.3-71.9,27.4c-68.6,17.6-137.2,36.6-205.9,54.9c-45.1,12.4-91.5,24.2-137.9,23.5
		c-53.6-1.3-105.2-20.3-158.2-31.4c-58.8-12.4-120.3-17-180.4-12.4c-15.7,1.3-32.7,3.3-47.7-3.3c-9.8-3.9-17.6-11.8-25.5-20.3
		c-45.1-45.1-91.5-90.8-132.7-141.2c-60.1-73.9-132.7-173.2-149-269.3C352,521.6,341.5,411.8,325.8,304z"/>
	<path class="st2" d="M504.9,908.5c82.3,61.4,180.4,103.3,281.7,121.6c53.6,9.8,108.5,11.8,162.7,11.8
		c86.3,1.3,173.8-3.3,259.5-20.3c65.4-12.4,130.1-34,183.6-71.9c60.1-42.5,102.6-104.6,139.2-168c32.7-56.9,62.1-116.3,82.3-178.4
		c37.9-116.3,45.1-239.2,51.6-360.8c3.3-56.9,6.5-113.7,1.3-170.6c-8.5-94.8-39.2-186.9-75.8-274.5
		c-39.2-91.5-89.5-184.3-173.2-239.2c-80.4-52.9-181.7-63.4-277.8-62.1c-124.8,1.3-248.3,20.3-371.2,41.8
		c-45.1,8.5-90.8,17-130.7,39.2c-35.9,20.3-64,49.7-92.8,77.8c-71.9,73.9-143.8,147.7-203.9,230.7c-9.8,13.7-19,27.4-22.2,43.1
		c-3.9,17.6,0,37.9-3.3,56.2c-5.2,39.2-39.9,68.6-47.7,107.8c-5.2,27.4,3.3,54.9,8.5,81c15,77.1,3.9,156.2,9.8,234
		c7.2,101.3,44.4,195.4,66.7,292.1C374.2,786.3,436.3,856.9,504.9,908.5z"/>
	<path class="st2" d="M793.1,341.9c7.2,49.7,46.4,92.8,94.1,108.5c47.7,15.7,103.3,3.3,141.2-29.4c37.9-32.7,58.2-85.6,52.9-135.3
		c-3.9-41.2-23.5-79.1-47.7-111.8c-7.2-10.5-15-20.3-25.5-27.4c-13.7-9.8-29.4-15-46.4-17.6c-42.5-7.2-87.6-3.3-123.5,20.9
		C776.8,191.5,783.3,279.1,793.1,341.9z"/>
	<path class="st2" d="M419.3,871.9c87.6,111.8,212.4,191.5,349.6,226.8c73.9,19,151,24.2,228.1,28.8c69.9,3.9,142.5,7.2,206.5-20.3
		c48.4-20.3,88.9-56.2,127.4-90.8c41.2-36.6,82.3-73.9,123.5-111.8c29.4-27.4,60.1-53.6,96.1-72.5c17-8.5,35.9-15.7,48.4-30.7
		c12.4-15,17-34,20.9-52.9c25.5-110.4,50.3-220.2,75.2-331.3c27.4-121.6,54.9-250.3,12.4-367.3c-8.5-24.2-20.3-46.4-24.2-71.9
		c-3.9-22.2-1.3-45.1-1.3-68.6c3.9-186.9-143.8-364.7-326.8-396.7c-22.2-3.9-44.4-5.2-65.4-13.7c-15-6.5-29.4-15-44.4-20.9
		c-41.2-17.6-87.6-17.6-132.7-15.7c-60.1,2-120.3,5.2-180.4,9.8c-82.3,6.5-165.3,15-244.4,39.2s-154.2,67.3-206.5,131.4
		c-23.5,28.8-41.2,60.1-62.1,88.9c-19,25.5-42.5,49.7-61.4,75.2c-71.9,96.1-96.1,219.6-98,338.5c-2,125.5,9.8,256.2,20.3,381.7
		C293.8,652.3,341.5,773.9,419.3,871.9z"/>
	<path class="st2" d="M749.3,464.7c25.5,52.9,79.1,87.6,135.3,102.6c47.7,12.4,100,12.4,146.4-5.2
		c80.4-29.4,135.3-103.3,178.4-177.1c13.7-23.5,26.1-46.4,28.8-73.9c2-34.6-15-67.3-34-96.1c-37.9-58.2-86.3-109.8-146.4-143.8
		s-132-49.7-199.3-35.3c-17,3.9-34,9.8-47.7,20.3c-15,11.8-25.5,28.8-34,45.1c-30.7,54.9-58.2,116.3-49.7,181.7
		C734.9,341.9,723.2,407.9,749.3,464.7z"/>
	<path class="st2" d="M325.8,736.6c62.1,128.7,144.4,251,261.4,332c50.3,35.9,107.8,62.1,163.4,88.9c64,30.7,128.7,61.4,192.8,91.5
		c27.4,12.4,54.9,26.1,84.3,32.7c48.4,10.5,98,2,146.4-9.8c68.6-15.7,135.3-37.9,199.3-65.4c75.2-31.4,151-75.8,190.2-147.7
		c37.9-70.6,34-157.5,49.7-236.6c3.3-17.6,8.5-35.9,17.6-50.3c8.5-13.7,22.2-24.2,31.4-36.6c20.3-24.2,31.4-54.9,42.5-84.3
		c106.5-317.6,100-671.2-17-984.2c-6.5-17-12.4-34-26.1-45.1c-13.7-11.8-31.4-17-48.4-24.2c-92.8-39.2-139.2-149.7-230.7-190.8
		c-36.6-15.7-77.1-20.3-117-20.3c-170.6,0-336.6,58.8-496.7,118.3c-78.4,28.1-157.5,58.2-224.2,107.2
		c-46.4,34.6-85.6,79.1-124.2,124.2c-63.4,74.5-127.4,152.3-151,246.4C252.6,53,252,123.6,235,193.5c-13.7,52.9-12.4,96.1-7.2,149
		C240.2,483.7,263.1,607.2,325.8,736.6z"/>
	<path class="st2" d="M896.5,259.2c-11.5,14.8-17.1,33.2-21.1,51.5c-5.2,24.4-6.1,53.8,12.9,69.8c9.9,8.3,23.1,11.2,35.7,13.7
		c9.5,1.9,19.1,3.8,28.8,4.2c45.9,1.5,88.5-37.3,94.6-82.9c1-7.4,1.1-15.1-0.9-22.3c-1.6-5.9-4.6-11.2-7.8-16.4
		c-9.5-15.3-21.4-29.6-37.1-38.4C969.8,220.5,919.2,230,896.5,259.2z"/>
	<path class="st2" d="M903.7,292c-5.8,19.7-9.5,40.8-3.6,60.5c5.8,19.6,23.6,36.9,44.1,36.3c16-0.5,29.6-11.1,44.7-16.3
		c8.7-3,18.5-4.5,25.5-10.5c7.8-6.7,10.5-17.5,12.5-27.6c3-15.2,5.4-32.2-2.8-45.4c-6.4-10.4-17.9-16.3-29.1-21
		C959.1,252.7,916.7,247.5,903.7,292z"/>
	<path class="st2" d="M944.9,281.5c-20.7,1.8-41.9,10.4-53.6,27.6s-10.3,43.7,6.3,56c9.2,6.8,21,8.5,32.3,10
		c18.5,2.4,38.9,4.4,54.2-6.2c8.7-6.1,14.5-15.5,19.8-24.7c5.4-9.3,10.7-19.4,9.9-30.1c-1.1-14.5-13.7-26-27.6-30.5
		c-13.8-4.4-28.8-3.3-43.3-2.1c-13.1,1.1-31.8,39.6-30.4,52.7s11.3,24.2,23.1,30s25.3,7.2,38.5,7.5c6.7,0.1,14.1-0.2,19-4.8
		c4.3-4,5.5-10.2,6.5-16c2.7-15.2,4.7-32.8-5.7-44.1c-4.3-4.7-10.3-7.6-16.3-9.8C962.3,291.4,956.7,270,944.9,281.5z"/>
	<path class="st2" d="M936.1,308.3c-3.6,4-5.3,9.3-5.8,14.6c-0.7,7,0.6,14.6,5.2,19.9c3.6,4.2,8.8,6.6,14.1,8.1
		c10.9,3.1,23.8,2.5,31.9-5.4c7.8-7.6,8.8-20.7,3.6-30.2c-5.3-9.5-16-15.4-26.8-16.2c-5-0.4-5.9,2.8-9.4,4.2
		C944.1,305.2,940.2,303.7,936.1,308.3z"/>
	<path class="st2" d="M928.9,331.8c-2.1,5.6-2.4,12.1,0.1,17.5c2.5,5.2,7.4,8.9,12.8,11s11.3,2.5,17,2.5c6.9,0,13.9-0.6,20.1-3.4
		s11.6-8.3,12.9-15c0.6-3.1,0.3-6.4-0.5-9.4c-2.4-9.7-9.8-18-19-21.7C956.2,306.8,935.1,315.4,928.9,331.8z"/>
	<path class="st2" d="M941.8,329.2c-0.3,7.5,4.2,14.5,10.1,19.1c6.6,5.1,15.5,7.6,23.4,5.2s14.2-10.6,13-18.8
		c-1.1-7.4-7.4-12.9-14.1-16.1C962.9,313.1,942.6,311.9,941.8,329.2z"/>
	<path class="st2" d="M957.1,321.3c-3,4-5.3,8.8-5.1,13.7c0.2,5,3.4,10,8.2,11.3c2.2,0.6,4.5,0.3,6.7,0.3c2.9-0.1,5.9,0.2,8.5-1
		c4.5-2,6.5-7.3,6.6-12.2c0-1.5-0.1-3-0.6-4.3c-1.4-3.8-5.3-5.9-9-7.5c-3.1-1.4-5.5-1.8-8.8-1.3C963,320.3,957.1,321.3,957.1,321.3z
		"/>
	<path class="st2" d="M957.6,334.3c-0.3,2.8,0.2,5.8,2,7.9c1.9,2.2,5,3.2,7.9,2.8s5.5-2,7.5-4.2c2.7-3,4-7.7,2-11.2
		c-2.2-3.8-9.2-6.3-13.4-5.2C959.3,325.7,958.1,330.1,957.6,334.3z"/>
	<path class="st2" d="M962.5,337.7c0,1,0.2,2,0.6,2.9c0.6,1.2,1.7,2.2,3,2.6s2.7,0.2,3.9-0.4c1.1-0.6,1.9-1.6,2.5-2.7
		c0.6-1,1-2.1,0.9-3.3c-0.1-1.6-1.2-2.9-2.4-4c-0.9-0.8-1.9-1.5-3-1.9c-2.1-0.7-3-0.2-4,1.4C962.9,334,962.4,335.8,962.5,337.7z"/>
	<path class="st2" d="M963.7,338.7c0.1,1,0.5,2.1,1.2,2.8c0.5,0.5,1.2,0.8,1.9,0.9c2,0.3,4.2-0.7,5-2.6c0.8-1.8,0.2-4.2-1.5-5.3
		c-0.8-0.5-1.8-0.7-2.8-0.8c-0.7-0.1-1.7-0.2-2.3,0C963.6,334.3,963.6,337.4,963.7,338.7z"/>
	<path class="st2" d="M966.4,335.8c-0.1,0.1-0.2,0.3-0.3,0.5c-0.3,1-0.5,2.1-0.4,3.1c0,0.4,0.1,0.7,0.2,1.1c0.4,0.7,1.3,1,2.1,1
		c0.7,0,1.5-0.2,1.9-0.8c0.3-0.5,0.3-1,0.2-1.6c0-0.6-0.1-1.2-0.4-1.7C969.3,336.7,967.2,335,966.4,335.8z"/>
</g>
<g class="st0">
	<path class="st1" d="M-395.9,556c-50.1,16.7-100.2,33.4-149.4,55c-282,124.8-467.7,408.8-548.3,707.5
		c-60.9-22.6-129.7,24.6-152.3,85.5c-22.6,60.9-11.8,128.7,4.9,190.6c29.5,113,74.7,221.1,95.3,336.1
		c36.4,198.5,2.9,416.6,101.2,592.5c45.2,81.6,115.9,145.4,184.7,208.3c52.1,48.1,105.1,95.3,157.2,143.5
		c39.3,35.4,78.6,71.7,123.8,100.2c41.3,26.5,86.5,47.2,132.7,64.9c398.9,148.4,845,48.1,1249.9-80.6
		c68.8-21.6,139.5-46.2,193.6-93.3c70.7-61.9,105.1-155.3,164.1-228c44.2-54,102.2-96.3,134.6-157.2c58-106.1,26.5-237.8,33.4-358.7
		c4.9-92.4,33.4-180.8,48.1-272.2c38.3-232.9-14.7-480.5-145.4-677c-13.8-20.6-28.5-41.3-35.4-64.9c-13.8-47.2,3.9-98.3-6.9-146.4
		c-11.8-51.1-54-88.4-94.3-121.8c-78.6-65.8-157.2-130.7-235.8-196.5c-32.4-26.5-65.8-54-105.1-66.8c-56-17.7-116.9-4.9-175.9-3.9
		c-174.9,1-325.2-105.1-492.3-140.5C7.9,415.5-36.3,435.2-107,461.7C-201.4,497.1-299.6,525.6-395.9,556z"/>
	<path class="st2" d="M-268.2,2080.1c55,108.1,231.9,131.7,353.7,123.8c88.4-5.9,171-51.1,244.7-103.2
		c75.7-55,145.4-123.8,183.7-211.3s36.4-193.6-20.6-269.2c-25.5-33.4-59-59-92.4-84.5c-57-41.3-113-84.5-170-125.8
		c-47.2-35.4-96.3-71.7-154.3-84.5c-96.3-22.6-199.5,25.5-261.4,103.2c-63.9,75.7-90.4,175.9-98.3,276.1
		c-7.9,85.5-54,123.8-36.4,207.3C-312.4,1944.5-276,2048.6-268.2,2080.1"/>
	<path class="st2" d="M-185.6,2084c25.5,15.7,55,22.6,85.5,26.5c38.3,5.9,75.7,12.8,115.9,9.8c77.6-5.9,145.4-49.1,211.3-88.4
		c44.2-28.5,88.4-55,125.8-93.3c36.4-38.3,61.9-87.5,61.9-139.5c0-59-33.4-113-64.9-162.1c-20.6-31.4-41.3-63.9-69.8-88.4
		c-35.4-30.5-77.6-49.1-120.9-64.9c-66.8-25.5-139.5-47.2-207.3-26.5c-81.6,23.6-130.7,106.1-160.2,185.7
		C-247.6,1746.9-304.5,2006.4-185.6,2084z"/>
	<path class="st2" d="M-26.5,2029.9c52.1,2.9,105.1-12.8,152.3-36.4c31.4-15.7,63.9-35.4,88.4-59c77.6-75.7,92.4-211.3,28.5-301.7
		c-63.9-90.4-193.6-125.8-291.8-77.6c-20.6,9.8-41.3,23.6-57,39.3c-20.6,22.6-33.4,49.1-43.2,77.6c-26.5,72.7-51.1,175.9-44.2,255.5
		C-187.6,2007.3-95.2,2025-26.5,2029.9z"/>
	<path class="st2" d="M131.7,1880.6c35.4-52.1,43.2-118.9,26.5-178.8c-4.9-20.6-14.7-41.3-31.4-55c-12.8-9.8-26.5-14.7-43.2-17.7
		c-36.4-7.9-74.7-10.8-108.1,2.9c-77.6,35.4-121.8,191.6-100.2,269.2C-88.4,2022.1,85.6,1952.3,131.7,1880.6z"/>
	<path class="st2" d="M-269.2,2196c55,49.1,126.8,75.7,201.4,85.5c142.5,18.7,291.8-18.7,405.8-108.1c20.6-15.7,39.3-33.4,59-49.1
		c10.8-9.8,23.6-20.6,35.4-30.5c51.1-44.2,101.2-90.4,134.6-149.4c26.5-47.2,39.3-103.2,38.3-157.2c-2-55-18.7-109.1-38.3-162.1
		c-9.8-25.5-18.7-52.1-35.4-74.7c-38.3-55-100.2-90.4-160.2-123.8c-44.2-23.6-88.4-47.2-133.6-71.7c-35.4-18.7-71.7-38.3-111-46.2
		c-84.5-15.7-168,26.5-240.7,72.7c-51.1,31.4-103.2,67.8-136.6,118.9c-17.7,26.5-30.5,57-39.3,88.4
		c-25.5,74.7-39.3,154.3-43.2,232.9C-336,1956.2-385.1,2092.8-269.2,2196z"/>
	<path class="st2" d="M-301.6,2304.1c55,47.2,126.8,74.7,198.5,87.5c20.6,2.9,41.3,5.9,63.9,7.9c67.8,4.9,136.6-2,203.4-18.7
		c158.2-41.3,296.7-141.5,398-269.2c114-144.4,183.7-330.2,168-513.9c-9.8-106.1-52.1-217.2-145.4-269.2
		c-54-30.5-115.9-35.4-174.9-55c-88.4-30.5-166.1-92.4-258.4-106.1c-41.3-5.9-84.5-2-125.8,4.9c-43.2,7.9-85.5,18.7-121.8,44.2
		c-28.5,18.7-51.1,46.2-72.7,71.7c-75.7,84.5-151.3,173.9-226,261.4c-20.6,23.6-41.3,49.1-52.1,79.6c-7.9,22.6-9.8,44.2-10.8,67.8
		C-469.6,1901.2-474.5,2159.6-301.6,2304.1z"/>
	<path class="st2" d="M-160.1,2494.7c47.2,12.8,96.3,22.6,145.4,20.6c96.3-2,188.7-41.3,277.1-80.6c52.1-23.6,108.1-49.1,145.4-92.4
		c18.7-20.6,33.4-46.2,55-63.9c15.7-12.8,36.4-20.6,54-31.4c85.5-54,113-162.1,137.6-260.4c31.4-120.9,71.7-240.7,120.9-356.7
		c23.6-57,49.1-115.9,46.2-177.9c-4.9-75.7-55-142.5-115.9-186.7c-59.9-44.2-133.6-71.7-203.4-101.2
		c-74.7-31.4-150.3-67.8-231.9-74.7c-44.2-2.9-87.5,2.9-131.7,9.8c-59.9,9.8-121.8,17.7-175.9,44.2c-39.3,18.7-74.7,47.2-113,67.8
		c-49.1,28.5-107.1,46.2-164.1,62.9c-9.8,2.9-20.6,5.9-26.5,14.7c-12.8,14.7-9.8,35.4-7.9,54c4.9,85.5-46.2,162.1-98.3,229.9
		c-28.5,36.4-59,72.7-71.7,116.9c-15.7,51.1-5.9,106.1,2.9,159.2c14.7,80.6,33.4,162.1,41.3,244.7c4.9,52.1,2.9,103.2,18.7,155.3
		C-417.5,2388.6-299.6,2469.2-160.1,2494.7z"/>
	<path class="st2" d="M-511.9,2448.5c7.9,30.5,17.7,59,35.4,84.5c20.6,30.5,52.1,52.1,85.5,69.8c154.3,84.5,345.9,95.3,509,26.5
		c71.7-30.5,134.6-72.7,199.5-115.9c59-39.3,116.9-79.6,175.9-118.9c30.5-18.7,59.9-39.3,82.5-66.8c18.7-22.6,33.4-49.1,44.2-75.7
		c39.3-85.5,67.8-175.9,98.3-266.3s59-182.8,88.4-273.2c26.5-84.5,55-170,67.8-258.4c5.9-41.3,9.8-84.5,2-125.8
		c-5.9-30.5-17.7-59-30.5-87.5c-22.6-52.1-43.2-103.2-64.9-155.3c-2.9-7.9-7.9-17.7-14.7-23.6c-7.9-5.9-17.7-9.8-26.5-12.8
		c-49.1-17.7-92.4-52.1-139.5-75.7c-59.9-28.5-126.8-38.3-193.6-41.3c-273.2-14.7-555.2,66.8-754.6,252.5
		c-43.2,39.3-85.5,93.3-77.6,152.3c2.9,18.7,10.8,38.3,14.7,57c7.9,49.1-15.7,98.3-44.2,141.5s-63.9,79.6-82.5,125.8
		c-22.6,55-20.6,116.9-18.7,177.9c2.9,98.3,5.9,195.5,0,293.8c-4.9,54,2.9,109.1,10.8,162.1
		C-537.4,2343.4-511.9,2399.4-511.9,2448.5z"/>
	<path class="st2" d="M-504,2359.1c66.8,84.5,145.4,163.1,244.7,206.3c142.5,59.9,306.6,36.4,459.9,9.8c15.7-2.9,31.4-4.9,47.2-7.9
		c18.7-2.9,38.3-5.9,57-9.8c61.9-10.8,123.8-20.6,182.8-41.3c69.8-25.5,136.6-63.9,190.6-114c22.6-20.6,43.2-43.2,52.1-69.8
		c9.8-23.6,9.8-51.1,15.7-75.7c12.8-52.1,46.2-98.3,72.7-145.4c44.2-80.6,66.8-171,88.4-260.4c9.8-38.3,18.7-75.7,18.7-115.9
		c0-41.3-10.8-82.5-20.6-121.8c-33.4-125.8-71.7-247.6-114-369.5c-7.9-25.5-17.7-51.1-33.4-71.7c-22.6-28.5-54-49.1-84.5-66.8
		c-100.2-59.9-199.5-120.9-309.5-162.1c-109.1-41.3-227-63.9-342.9-46.2c-158.2,25.5-294.8,125.8-446.1,182.8
		c-9.8,2.9-18.7,5.9-25.5,12.8c-7.9,7.9-12.8,18.7-15.7,28.5c-36.4,98.3-63.9,198.5-79.6,301.7c-8.8,62.9-14.7,129.7-39.3,189.6
		c-23.6,59.9-64.9,115.9-63.9,180.8c2,44.2,23.6,85.5,36.4,126.8c23.6,74.7-23.6,131.7-9.8,207.3
		C-607.2,2215.7-557.1,2293.3-504,2359.1z"/>
	<path class="st2" d="M-338,2665.7c72.7,35.4,154.3,55,231.9,43.2c55-9.8,108.1-33.4,163.1-35.4c66.8-2,128.7,30.5,195.5,35.4
		c46.2,2.9,92.4-5.9,134.6-18.7c84.5-25.5,162.1-67.8,229.9-123.8c199.5-163.1,293.8-421.5,367.5-668.2
		c44.2-144.4,84.5-294.8,61.9-446.1c-14.7-92.4-52.1-178.8-88.4-263.3c-10.8-26.5-23.6-54-41.3-77.6c-30.5-39.3-72.7-66.8-114-92.4
		c-96.3-59-193.6-118.9-297.7-160.2C260.5,760.4-29.4,770.2-259.3,898c-49.1,28.5-100.2,61.9-157.2,64.9c-14.7,0-31.4,0-41.3,10.8
		c-5.9,5.9-7.9,15.7-9.8,23.6c-39.3,147.4-195.5,245.7-219.1,398c-5.9,44.2-2,88.4,0,133.6c2,92.4-18.7,183.7-57,266.3
		c-9.8,20.6-20.6,41.3-14.7,63.9c4.9,15.7,17.7,26.5,26.5,41.3c49.1,66.8,15.7,166.1,23.6,242.7c7.9,67.8,22.6,133.6,51.1,195.5
		C-594.4,2479-480.4,2598.9-338,2665.7z"/>
	<path class="st2" d="M-491.2,2681.4c93.3,69.8,204.4,120.9,321.3,120.9c67.8,0,134.6-17.7,204.4-18.7c113-2,225,41.3,336.1,18.7
		c66.8-14.7,125.8-51.1,182.8-88.4c28.5-17.7,57-36.4,82.5-59c26.5-23.6,49.1-51.1,69.8-79.6c43.2-59,79.6-123.8,105.1-193.6
		c47.2-121.8,63.9-255.5,71.7-385.2c2-43.2,2.9-84.5-4.9-126.8c-12.8-63.9-44.2-120.9-61.9-183.7c-46.2-166.1,17.7-353.7-51.1-511.9
		c-28.5-64.9-75.7-120.9-108.1-183.7c-23.6-47.2-38.3-101.2-71.7-142.5c-46.2-57-121.8-79.6-193.6-98.3
		C256.5,713.2,115,679.8-21.6,703.4c-87.5,15.7-170,54-255.5,79.6c-50.1,14.7-100.2,25.5-149.4,44.2
		c-162.1,63.9-279.1,211.3-342.9,373.4s-84.5,336.1-101.2,509c-5.9,57-10.8,116.9,4.9,172.9c9.8,35.4,28.5,66.8,39.3,100.2
		c43.2,121.8,4.9,256.5,47.2,379.3C-735.9,2482.9-590.5,2606.7-491.2,2681.4z"/>
	<path class="st2" d="M-87.4,1918.9c2,4.9,2.9,10.8,7.9,14.7c2.9,2.9,7.9,2.9,10.8,4.9c18.7,4.9,36.4,7.9,55,12.8
		c12.8,2.9,25.5,5.9,39.3,5.9c46.2,2,92.4-23.6,118.9-61.9c28.5-38.3,39.3-84.5,41.3-131.7c2-33.4-4.9-69.8-26.5-93.3
		c-15.7-17.7-38.3-26.5-59.9-33.4c-15.7-4.9-31.4-9.8-47.2-9.8c-36.4,0-71.7,20.6-96.3,49.1C-105.1,1746-111,1828.5-87.4,1918.9z"/>
	<path class="st2" d="M-71.7,2080.1c33.4,7.9,67.8,7.9,101.2,7.9c36.4,0,72.7,0,106.1-14.7c52.1-20.6,87.5-71.7,118.9-118.9
		c36.4-54,72.7-111,84.5-174.9c15.7-88.4-22.6-183.7-87.5-245.7c-64.9-61.9-155.3-95.3-245.7-105.1c-37.3-2-75.7-2-112,9.8
		c-85.5,26.5-141.5,114-157.2,203.4c-17.7,88.4-2,178.8,12.8,268.3C-234.8,1996.5-157.2,2061.4-71.7,2080.1z"/>
	<path class="st2" d="M364.6,2255c170-115.9,269.2-320.3,279.1-524.7c2.9-69.8-2.9-141.5-35.4-204.4
		C567,1443.3,486.5,1386.3,402,1351c-85.5-35.4-175.9-52.1-265.3-75.7c-38.3-9.8-75.7-22.6-115.9-20.6c-41.3,0-79.6,12.8-116.9,30.5
		C-227.8,1346.1-330,1468-382,1606.5c-64.9,172.9-59.9,399.9,36.4,561.1c82.5,136.6,274.1,195.5,425.5,185.7
		C180.9,2345.4,281.1,2311.9,364.6,2255z"/>
	<path class="st2" d="M-717.2,2537c133.6,158.2,325.2,263.3,528.6,304.6c341,66.8,712.4-54,948.2-307.6
		c17.7-18.7,33.4-38.3,41.3-61.9c7.9-23.6,4.9-51.1,9.8-75.7c14.7-69.8,82.5-111,125.8-166.1c66.8-84.5,75.7-198.5,82.5-306.6
		c5.9-105.1,14.7-209.3,20.6-312.5c2-31.4,4.9-64.9-2.9-95.3c-7.9-33.4-28.5-63.9-43.2-93.3c-44.2-87.5-55-188.7-92.4-279.1
		C850,1017.7,751.7,915.5,644.6,833c-38.3-28.5-77.6-55-118.9-80.6c-98.3-59-209.3-101.2-323.3-109.1
		C73.8,635.6-51,673.9-171.9,718.2c-69.8,26.5-139.5,55-207.3,88.4c-64.9,30.5-131.7,64.9-178.8,118.9
		c-72.7,77.6-98.3,187.7-122.8,290.9c-35.4,155.3-67.8,310.5-106.1,464.8c-36.4,150.3-126.8,277.1-111,433.3
		C-882.3,2265.8-816.5,2417.1-717.2,2537z"/>
	<path class="st2" d="M-894.1,1780.4c-25.5-170-49.1-343.9,0-508c22.6-72.7,59-141.5,95.3-209.3c35.4-64.9,72.7-131.7,134.6-171
		c39.3-25.5,84.5-36.4,126.8-55c59.9-25.5,113-63.9,170-95.3C-204.3,651.3-15.7,615,171,620.9s369.5,54,542.4,120.9
		c18.7,5.9,36.4,14.7,52.1,25.5c20.6,14.7,36.4,35.4,51.1,55c126.8,174.9,225,371.4,289.9,577.8c66.8,212.2,96.3,434.3,106.1,656.4
		c2.9,82.5,2.9,166.1-22.6,245.7c-20.6,66.8-57,125.8-95.3,182.8c-51.1,79.6-103.2,157.2-157.2,232.9
		c-28.5,41.3-59.9,84.5-103.2,111c-33.4,20.6-71.7,30.5-108.1,41.3c-103.2,26.5-206.3,55-309.5,82.5
		c-67.8,18.7-137.6,36.4-207.3,35.4c-80.6-2-158.2-30.5-237.8-47.2c-88.4-18.7-180.8-25.5-271.2-18.7c-23.6,2-49.1,4.9-71.7-4.9
		c-14.7-5.9-26.5-17.7-38.3-30.5c-67.8-67.8-137.6-136.6-199.5-212.2c-90.4-111-199.5-260.4-224-404.8
		C-854.8,2107.6-870.5,1942.5-894.1,1780.4z"/>
	<path class="st2" d="M-624.9,2689.3c123.8,92.4,271.2,155.3,423.5,182.8c80.6,14.7,163.1,17.7,244.7,17.7
		c129.7,2,261.4-4.9,390.1-30.5c98.3-18.7,195.5-51.1,276.1-108.1c90.4-63.9,154.3-157.2,209.3-252.5
		c49.1-85.5,93.3-174.9,123.8-268.3c57-174.9,67.8-359.6,77.6-542.4c4.9-85.5,9.8-171,2-256.5c-12.8-142.5-59-281-114-412.7
		c-59-137.6-134.6-277.1-260.4-359.6c-120.9-79.6-273.2-95.3-417.6-93.3c-187.7,2-373.4,30.5-558.1,62.9
		c-67.8,12.8-136.6,25.5-196.5,59c-54,30.5-96.3,74.7-139.5,116.9c-108.1,111-216.2,222.1-306.6,346.9
		c-14.7,20.6-28.5,41.3-33.4,64.9c-5.9,26.5,0,57-4.9,84.5c-7.9,59-59.9,103.2-71.7,162.1c-7.9,41.3,4.9,82.5,12.8,121.8
		c22.6,115.9,5.9,234.8,14.7,351.8c10.8,152.3,66.8,293.8,100.2,439.2C-821.4,2505.5-728,2611.6-624.9,2689.3z"/>
	<path class="st2" d="M-191.5,1837.3c10.8,74.7,69.8,139.5,141.5,163.1s155.3,4.9,212.2-44.2c57-49.1,87.5-128.7,79.6-203.4
		c-5.9-61.9-35.4-118.9-71.7-168c-10.8-15.7-22.6-30.5-38.3-41.3c-20.6-14.7-44.2-22.6-69.8-26.5c-63.9-10.8-131.7-4.9-185.7,31.4
		C-216.1,1611.3-206.3,1743-191.5,1837.3z"/>
	<path class="st2" d="M-753.6,2634.2c131.7,168,319.3,287.9,525.7,341c111,28.5,227,36.4,342.9,43.2
		c105.1,5.9,214.2,10.8,310.5-30.5c72.7-30.5,133.6-84.5,191.6-136.6c61.9-55,123.8-111,185.7-168c44.2-41.3,90.4-80.6,144.4-109.1
		c25.5-12.8,54-23.6,72.7-46.2c18.7-22.6,25.5-51.1,31.4-79.6c38.3-166.1,75.7-331.1,113-498.2c41.3-182.8,82.5-376.3,18.7-552.2
		c-12.8-36.4-30.5-69.8-36.4-108.1c-5.9-33.4-2-67.8-2-103.2c5.9-281-216.2-548.3-491.3-596.4c-33.4-5.9-66.8-7.9-98.3-20.6
		c-22.6-9.8-44.2-22.6-66.8-31.4c-61.9-26.5-131.7-26.5-199.5-23.6c-90.4,2.9-180.8,7.9-271.2,14.7c-123.8,9.8-248.6,22.6-367.5,59
		S-581.6,689.7-660.2,786c-35.4,43.2-61.9,90.4-93.3,133.6c-28.5,38.3-63.9,74.7-92.4,113c-108.1,144.4-144.4,330.2-147.4,509
		c-2.9,188.7,14.7,385.2,30.5,573.8C-942.3,2304.1-870.5,2486.9-753.6,2634.2z"/>
	<path class="st2" d="M-257.4,2022.1c38.3,79.6,118.9,131.7,203.4,154.3c71.7,18.7,150.3,18.7,220.1-7.9
		c120.9-44.2,203.4-155.3,268.3-266.3c20.6-35.4,39.3-69.8,43.2-111c2.9-52.1-22.6-101.2-51.1-144.4
		c-57-87.5-129.7-165.1-220.1-216.2s-198.5-74.7-299.7-53.1c-25.5,5.9-51.1,14.7-71.7,30.5c-22.6,17.7-38.3,43.2-51.1,67.8
		c-46.2,82.5-87.5,174.9-74.7,273.2C-279,1837.3-296.7,1936.6-257.4,2022.1z"/>
	<path class="st2" d="M-894.1,2430.8c93.3,193.6,217.2,377.3,393,499.2c75.7,54,162.1,93.3,245.7,133.6
		c96.3,46.2,193.6,92.4,289.9,137.6c41.3,18.7,82.5,39.3,126.8,49.1c72.7,15.7,147.4,2.9,220.1-14.7c103.2-23.6,203.4-57,299.7-98.3
		c113-47.2,227-114,285.9-222.1c57-106.1,51.1-236.8,74.7-355.7c4.9-26.5,12.8-54,26.5-75.7c12.8-20.6,33.4-36.4,47.2-55
		c30.5-36.4,47.2-82.5,63.9-126.8c160.2-477.5,150.3-1009.1-25.5-1479.8c-9.8-25.5-18.7-51.1-39.3-67.8
		c-20.6-17.7-47.2-25.5-72.7-36.4c-139.5-59-209.3-225-346.9-286.9c-55-23.6-115.9-30.5-175.9-30.5c-256.5,0-506,88.4-746.8,177.9
		c-117.9,42.3-236.8,87.5-337,161.1c-69.8,52.1-128.7,118.9-186.7,186.7c-95.3,112-191.6,228.9-227,370.4
		c-25.5,106.1-26.5,212.2-52.1,317.4c-20.6,79.6-18.7,144.4-10.8,224C-1022.8,2050.6-988.4,2236.3-894.1,2430.8z"/>
	<path class="st2" d="M-36.1,1713.1c-17.3,22.2-25.8,49.9-31.7,77.4c-7.8,36.6-9.2,80.8,19.4,105c14.8,12.5,34.7,16.8,53.7,20.6
		c14.3,2.9,28.7,5.8,43.3,6.3c69.1,2.3,133-56.1,142.2-124.6c1.5-11.2,1.7-22.7-1.3-33.5c-2.4-8.8-6.9-16.9-11.7-24.7
		c-14.2-23-32.2-44.5-55.7-57.8C74.1,1654.8-1.9,1669.2-36.1,1713.1z"/>
	<path class="st2" d="M-25.3,1762.4c-8.7,29.6-14.2,61.4-5.5,90.9c8.8,29.5,35.5,55.5,66.3,54.6c24-0.7,44.5-16.7,67.2-24.5
		c13.1-4.5,27.7-6.7,38.3-15.8c11.8-10.1,15.7-26.3,18.8-41.5c4.6-22.9,8.1-48.4-4.2-68.3c-9.6-15.6-27-24.5-43.8-31.6
		C58,1703.3-5.7,1695.5-25.3,1762.4z"/>
	<path class="st2" d="M36.7,1746.6c-31.1,2.7-63,15.7-80.5,41.5s-15.6,65.6,9.5,84.2c13.8,10.2,31.6,12.7,48.6,15
		c27.8,3.6,58.5,6.6,81.5-9.4c13.1-9.1,21.8-23.3,29.8-37.1c8.1-14,16.2-29.2,14.9-45.3c-1.7-21.8-20.7-39.2-41.5-45.8
		s-43.3-4.9-65.1-3.1c-19.8,1.7-47.8,59.5-45.7,79.2s17,36.3,34.8,45.1s38.1,10.9,57.9,11.3c10.1,0.2,21.2-0.3,28.6-7.3
		c6.4-6,8.3-15.3,9.8-24c4-22.8,7-49.3-8.6-66.4c-6.5-7.1-15.5-11.4-24.5-14.7C62.9,1761.5,54.4,1729.3,36.7,1746.6z"/>
	<path class="st2" d="M23.4,1786.9c-5.4,5.9-7.9,14-8.7,22c-1.1,10.6,0.9,21.9,7.8,30c5.4,6.3,13.3,9.9,21.2,12.2
		c16.4,4.7,35.8,3.7,48-8.2c11.7-11.5,13.3-31.1,5.4-45.4s-24-23.1-40.3-24.4c-7.5-0.6-8.8,4.2-14.1,6.3
		C35.4,1782.2,29.6,1780,23.4,1786.9z"/>
	<path class="st2" d="M12.6,1822.2c-3.2,8.4-3.7,18.1,0.2,26.3c3.7,7.8,11.2,13.4,19.3,16.5c8.1,3,16.9,3.7,25.6,3.8
		c10.3,0.1,20.9-0.8,30.2-5.1s17.5-12.5,19.4-22.6c0.9-4.7,0.4-9.6-0.8-14.2c-3.7-14.6-14.7-27.1-28.6-32.6
		C53.7,1784.6,21.9,1797.5,12.6,1822.2z"/>
	<path class="st2" d="M32,1818.2c-0.5,11.3,6.3,21.9,15.2,28.7c9.9,7.6,23.3,11.5,35.2,7.8s21.4-16,19.6-28.3
		c-1.6-11.1-11.1-19.5-21.2-24.3C63.8,1794.1,33.2,1792.2,32,1818.2z"/>
	<path class="st2" d="M54.9,1806.5c-4.5,6-7.9,13.2-7.7,20.7c0.3,7.5,5.1,15.1,12.3,17c3.3,0.8,6.7,0.5,10.1,0.4
		c4.3-0.1,8.8,0.3,12.8-1.5c6.8-2.9,9.8-11,9.9-18.4c0-2.2-0.1-4.4-0.9-6.5c-2.1-5.7-8-8.8-13.5-11.3c-4.6-2-8.3-2.7-13.2-2
		C63.8,1805,54.9,1806.5,54.9,1806.5z"/>
	<path class="st2" d="M55.8,1825.9c-0.5,4.2,0.3,8.7,3,11.9c2.8,3.3,7.5,4.8,11.8,4.3s8.3-3,11.2-6.2c4-4.5,6.1-11.6,3-16.8
		c-3.4-5.7-13.8-9.4-20.2-7.8C58.3,1813,56.5,1819.7,55.8,1825.9z"/>
	<path class="st2" d="M63.1,1831.1c0,1.5,0.2,3,0.9,4.4c0.9,1.8,2.5,3.3,4.4,3.9s4.1,0.4,5.8-0.6c1.6-0.9,2.8-2.4,3.7-4
		c0.9-1.5,1.5-3.2,1.4-4.9c-0.2-2.4-1.8-4.4-3.6-6c-1.3-1.2-2.8-2.3-4.5-2.9c-3.1-1.1-4.5-0.3-6,2.2
		C63.8,1825.5,63.1,1828.2,63.1,1831.1z"/>
	<path class="st2" d="M64.9,1832.6c0.1,1.5,0.7,3.1,1.8,4.2c0.8,0.7,1.8,1.2,2.9,1.4c3,0.5,6.2-1.1,7.5-3.9c1.2-2.8,0.3-6.4-2.3-8
		c-1.3-0.8-2.8-1.1-4.2-1.2c-1-0.1-2.5-0.3-3.5,0.1C64.8,1826,64.7,1830.6,64.9,1832.6z"/>
	<path class="st2" d="M69,1828.2c-0.2,0.2-0.3,0.5-0.4,0.8c-0.5,1.5-0.7,3.1-0.6,4.7c0,0.6,0.1,1.1,0.4,1.6c0.6,1.1,1.9,1.4,3.1,1.5
		c1.1,0,2.3-0.2,2.8-1.1c0.4-0.7,0.4-1.6,0.4-2.4c-0.1-0.9-0.2-1.8-0.6-2.5C73.4,1829.6,70.1,1827.1,69,1828.2z"/>
</g>
</svg>
